<?xml version="1.0" standalone="no"?>
<!DOCTYPE svg PUBLIC "-//W3C//DTD SVG 20010904//EN"
 "http://www.w3.org/TR/2001/REC-SVG-20010904/DTD/svg10.dtd">
<svg version="1.0" xmlns="http://www.w3.org/2000/svg"
 width="700.000000pt" height="700.000000pt" viewBox="0 0 700.000000 700.000000"
 preserveAspectRatio="xMidYMid meet">
<metadata>
Created by potrace 1.11, written by Peter Selinger 2001-2013
</metadata>
<g transform="translate(0.000000,700.000000) scale(0.100000,-0.100000)"
fill="#000000" stroke="none">
<path d="M701 6588 c-281 -31 -539 -229 -641 -491 -64 -162 -60 19 -57 -2617
3 -2643 -2 -2434 63 -2581 111 -255 355 -440 623 -474 72 -10 5563 -10 5621 0
347 55 601 294 675 635 21 96 21 4779 1 4885 -61 307 -283 543 -591 626 l-80
22 -2775 1 c-1526 0 -2804 -2 -2839 -6z m5619 -244 c81 -17 180 -65 243 -118
74 -62 150 -174 172 -253 5 -15 9 -30 10 -33 13 -41 18 -156 19 -398 1 -253
-1 -292 -14 -293 -8 0 -1476 -2 -3262 -2 -2159 -1 -3248 1 -3249 8 0 6 -1 150
-1 320 0 306 0 311 26 390 61 188 214 332 401 375 64 15 314 17 2830 17 2262
0 2772 -2 2825 -13z m441 -1351 c5 -101 0 -3804 -5 -3850 -26 -241 -218 -440
-461 -480 -22 -4 -1286 -7 -2810 -7 l-2770 0 -74 22 c-212 62 -362 233 -395
451 -8 55 -11 596 -9 1966 1 1040 2 1896 2 1903 1 9 660 12 3261 12 3098 0
3260 -1 3261 -17z"/>
<path d="M734 6146 c-126 -46 -208 -137 -237 -262 -50 -220 102 -429 329 -451
153 -15 314 90 373 242 27 70 24 201 -7 268 -81 179 -280 267 -458 203z m207
-252 c88 -84 31 -224 -92 -224 -17 0 -40 5 -52 12 -28 14 -67 59 -68 78 -1 8
-3 26 -4 40 -4 36 22 86 58 110 46 30 117 23 158 -16z"/>
<path d="M1633 6159 c-160 -30 -280 -167 -291 -333 -24 -382 471 -542 676
-218 93 146 65 346 -66 464 -86 78 -201 109 -319 87z m150 -255 c36 -26 55
-70 52 -115 -8 -94 -102 -145 -190 -103 -37 17 -73 78 -69 116 1 13 3 28 3 35
1 17 52 74 75 84 31 13 100 4 129 -17z"/>
<path d="M2455 6151 c-143 -47 -233 -150 -258 -297 -36 -209 126 -409 340
-419 294 -15 487 298 339 548 -48 82 -134 149 -221 172 -55 15 -149 12 -200
-4z m173 -241 c59 -36 78 -118 42 -177 -65 -108 -240 -63 -240 62 0 107 108
170 198 115z"/>
<path d="M1025 4169 c-22 -3 -50 -12 -62 -19 -53 -34 -50 27 -49 -1391 l1
-1319 33 -32 32 -33 1111 -3 c998 -2 1114 -1 1144 14 66 31 63 -48 62 1391 0
1426 4 1340 -59 1378 -31 18 -73 19 -1103 19 -588 1 -1088 -2 -1110 -5z m2035
-1396 l0 -1163 -22 -1 c-78 -3 -1865 -4 -1875 -1 -10 3 -13 245 -13 1166 l0
1161 955 0 955 0 0 -1162z"/>
<path d="M4075 4172 c-70 -7 -112 -43 -119 -104 -6 -57 23 -103 78 -122 22 -8
312 -11 981 -11 918 1 951 1 979 20 30 20 56 69 56 105 0 35 -28 79 -63 97
-29 15 -110 16 -957 17 -509 1 -938 0 -955 -2z"/>
<path d="M4021 3304 c-82 -35 -88 -156 -9 -204 32 -20 48 -20 986 -20 1062 0
1004 -4 1037 67 28 59 8 123 -50 156 -30 18 -1922 19 -1964 1z"/>
<path d="M4070 2462 c-45 -5 -89 -37 -106 -79 -20 -46 -2 -106 40 -136 l31
-22 960 -1 c1051 0 997 -3 1035 59 24 39 25 80 3 117 -37 64 14 61 -1003 63
-509 1 -941 1 -960 -1z"/>
<path d="M4023 1593 c-88 -35 -89 -166 -3 -210 20 -10 237 -13 983 -13 1056 0
993 -4 1031 60 32 55 10 130 -47 162 -33 19 -1918 20 -1964 1z"/>
</g>
</svg>
