<svg width="1043" height="76" viewBox="0 0 1043 76" fill="none" xmlns="http://www.w3.org/2000/svg">
<path d="M157.005 18.1677L141.901 62.9677H136.909L123.789 24.7597L110.605 62.9677H105.677L90.5733 18.1677H95.4373L108.365 56.6957L121.741 18.1677H126.157L139.341 56.8877L152.461 18.1677H157.005ZM191.478 47.5437H163.318C163.574 51.0424 164.918 53.8797 167.35 56.0557C169.782 58.1891 172.854 59.2557 176.566 59.2557C178.657 59.2557 180.577 58.8931 182.326 58.1677C184.076 57.3997 185.59 56.2904 186.87 54.8397L189.43 57.7837C187.937 59.5757 186.06 60.9411 183.798 61.8797C181.58 62.8184 179.126 63.2877 176.438 63.2877C172.982 63.2877 169.91 62.5624 167.222 61.1117C164.577 59.6184 162.508 57.5704 161.014 54.9677C159.521 52.3651 158.774 49.4211 158.774 46.1357C158.774 42.8504 159.478 39.9064 160.886 37.3037C162.337 34.7011 164.3 32.6744 166.774 31.2237C169.292 29.7731 172.108 29.0477 175.222 29.0477C178.337 29.0477 181.132 29.7731 183.606 31.2237C186.081 32.6744 188.022 34.7011 189.43 37.3037C190.838 39.8637 191.542 42.8077 191.542 46.1357L191.478 47.5437ZM175.222 32.9517C171.98 32.9517 169.249 33.9971 167.03 36.0877C164.854 38.1357 163.617 40.8237 163.318 44.1517H187.19C186.892 40.8237 185.633 38.1357 183.414 36.0877C181.238 33.9971 178.508 32.9517 175.222 32.9517ZM218.135 29.0477C221.293 29.0477 224.151 29.7731 226.711 31.2237C229.271 32.6317 231.277 34.6371 232.727 37.2397C234.178 39.8424 234.903 42.8077 234.903 46.1357C234.903 49.4637 234.178 52.4291 232.727 55.0317C231.277 57.6344 229.271 59.6611 226.711 61.1117C224.151 62.5624 221.293 63.2877 218.135 63.2877C215.319 63.2877 212.781 62.6904 210.519 61.4957C208.301 60.3011 206.509 58.5731 205.143 56.3117V62.9677H200.791V15.4797H205.335V35.7037C206.743 33.5277 208.535 31.8851 210.711 30.7757C212.93 29.6237 215.405 29.0477 218.135 29.0477ZM217.815 59.2557C220.162 59.2557 222.295 58.7224 224.215 57.6557C226.135 56.5464 227.629 54.9891 228.695 52.9837C229.805 50.9784 230.359 48.6957 230.359 46.1357C230.359 43.5757 229.805 41.2931 228.695 39.2877C227.629 37.2824 226.135 35.7464 224.215 34.6797C222.295 33.5704 220.162 33.0157 217.815 33.0157C215.426 33.0157 213.271 33.5704 211.351 34.6797C209.474 35.7464 207.981 37.2824 206.871 39.2877C205.805 41.2931 205.271 43.5757 205.271 46.1357C205.271 48.6957 205.805 50.9784 206.871 52.9837C207.981 54.9891 209.474 56.5464 211.351 57.6557C213.271 58.7224 215.426 59.2557 217.815 59.2557ZM261.876 18.1677H280.116C284.852 18.1677 289.034 19.1277 292.66 21.0477C296.287 22.9251 299.103 25.5704 301.108 28.9837C303.114 32.3544 304.116 36.2157 304.116 40.5677C304.116 44.9197 303.114 48.8024 301.108 52.2157C299.103 55.5864 296.287 58.2317 292.66 60.1517C289.034 62.0291 284.852 62.9677 280.116 62.9677H261.876V18.1677ZM279.86 58.8717C283.786 58.8717 287.22 58.1037 290.164 56.5677C293.108 54.9891 295.391 52.8344 297.012 50.1037C298.634 47.3304 299.444 44.1517 299.444 40.5677C299.444 36.9837 298.634 33.8264 297.012 31.0957C295.391 28.3224 293.108 26.1677 290.164 24.6317C287.22 23.0531 283.786 22.2637 279.86 22.2637H266.612V58.8717H279.86ZM343.103 47.5437H314.943C315.199 51.0424 316.543 53.8797 318.975 56.0557C321.407 58.1891 324.479 59.2557 328.191 59.2557C330.282 59.2557 332.202 58.8931 333.951 58.1677C335.701 57.3997 337.215 56.2904 338.495 54.8397L341.055 57.7837C339.562 59.5757 337.685 60.9411 335.423 61.8797C333.205 62.8184 330.751 63.2877 328.063 63.2877C324.607 63.2877 321.535 62.5624 318.847 61.1117C316.202 59.6184 314.133 57.5704 312.639 54.9677C311.146 52.3651 310.399 49.4211 310.399 46.1357C310.399 42.8504 311.103 39.9064 312.511 37.3037C313.962 34.7011 315.925 32.6744 318.399 31.2237C320.917 29.7731 323.733 29.0477 326.847 29.0477C329.962 29.0477 332.757 29.7731 335.231 31.2237C337.706 32.6744 339.647 34.7011 341.055 37.3037C342.463 39.8637 343.167 42.8077 343.167 46.1357L343.103 47.5437ZM326.847 32.9517C323.605 32.9517 320.874 33.9971 318.655 36.0877C316.479 38.1357 315.242 40.8237 314.943 44.1517H338.815C338.517 40.8237 337.258 38.1357 335.039 36.0877C332.863 33.9971 330.133 32.9517 326.847 32.9517ZM380.079 29.3037L365.103 62.9677H360.431L345.519 29.3037H350.255L362.863 57.9757L375.599 29.3037H380.079ZM414.853 47.5437H386.693C386.949 51.0424 388.293 53.8797 390.725 56.0557C393.157 58.1891 396.229 59.2557 399.941 59.2557C402.032 59.2557 403.952 58.8931 405.701 58.1677C407.451 57.3997 408.965 56.2904 410.245 54.8397L412.805 57.7837C411.312 59.5757 409.435 60.9411 407.173 61.8797C404.955 62.8184 402.501 63.2877 399.813 63.2877C396.357 63.2877 393.285 62.5624 390.597 61.1117C387.952 59.6184 385.883 57.5704 384.389 54.9677C382.896 52.3651 382.149 49.4211 382.149 46.1357C382.149 42.8504 382.853 39.9064 384.261 37.3037C385.712 34.7011 387.675 32.6744 390.149 31.2237C392.667 29.7731 395.483 29.0477 398.597 29.0477C401.712 29.0477 404.507 29.7731 406.981 31.2237C409.456 32.6744 411.397 34.7011 412.805 37.3037C414.213 39.8637 414.917 42.8077 414.917 46.1357L414.853 47.5437ZM398.597 32.9517C395.355 32.9517 392.624 33.9971 390.405 36.0877C388.229 38.1357 386.992 40.8237 386.693 44.1517H410.565C410.267 40.8237 409.008 38.1357 406.789 36.0877C404.613 33.9971 401.883 32.9517 398.597 32.9517ZM424.166 15.4797H428.71V62.9677H424.166V15.4797ZM455.114 63.2877C451.871 63.2877 448.948 62.5624 446.346 61.1117C443.743 59.6184 441.695 57.5704 440.202 54.9677C438.708 52.3651 437.962 49.4211 437.962 46.1357C437.962 42.8504 438.708 39.9064 440.202 37.3037C441.695 34.7011 443.743 32.6744 446.346 31.2237C448.948 29.7731 451.871 29.0477 455.114 29.0477C458.356 29.0477 461.279 29.7731 463.882 31.2237C466.484 32.6744 468.511 34.7011 469.962 37.3037C471.455 39.9064 472.202 42.8504 472.202 46.1357C472.202 49.4211 471.455 52.3651 469.962 54.9677C468.511 57.5704 466.484 59.6184 463.882 61.1117C461.279 62.5624 458.356 63.2877 455.114 63.2877ZM455.114 59.2557C457.503 59.2557 459.636 58.7224 461.514 57.6557C463.434 56.5464 464.927 54.9891 465.994 52.9837C467.06 50.9784 467.594 48.6957 467.594 46.1357C467.594 43.5757 467.06 41.2931 465.994 39.2877C464.927 37.2824 463.434 35.7464 461.514 34.6797C459.636 33.5704 457.503 33.0157 455.114 33.0157C452.724 33.0157 450.57 33.5704 448.65 34.6797C446.772 35.7464 445.279 37.2824 444.17 39.2877C443.103 41.2931 442.57 43.5757 442.57 46.1357C442.57 48.6957 443.103 50.9784 444.17 52.9837C445.279 54.9891 446.772 56.5464 448.65 57.6557C450.57 58.7224 452.724 59.2557 455.114 59.2557ZM498.823 29.0477C501.98 29.0477 504.839 29.7731 507.399 31.2237C509.959 32.6317 511.964 34.6371 513.415 37.2397C514.865 39.8424 515.591 42.8077 515.591 46.1357C515.591 49.5064 514.865 52.4931 513.415 55.0957C511.964 57.6984 509.959 59.7251 507.399 61.1757C504.881 62.5837 502.023 63.2877 498.823 63.2877C496.092 63.2877 493.617 62.7331 491.399 61.6237C489.223 60.4717 487.431 58.8077 486.023 56.6317V75.3837H481.479V29.3037H485.831V35.9597C487.196 33.7411 488.988 32.0344 491.207 30.8397C493.468 29.6451 496.007 29.0477 498.823 29.0477ZM498.503 59.2557C500.849 59.2557 502.983 58.7224 504.903 57.6557C506.823 56.5464 508.316 54.9891 509.383 52.9837C510.492 50.9784 511.047 48.6957 511.047 46.1357C511.047 43.5757 510.492 41.3144 509.383 39.3517C508.316 37.3464 506.823 35.7891 504.903 34.6797C502.983 33.5704 500.849 33.0157 498.503 33.0157C496.113 33.0157 493.959 33.5704 492.039 34.6797C490.161 35.7891 488.668 37.3464 487.559 39.3517C486.492 41.3144 485.959 43.5757 485.959 46.1357C485.959 48.6957 486.492 50.9784 487.559 52.9837C488.668 54.9891 490.161 56.5464 492.039 57.6557C493.959 58.7224 496.113 59.2557 498.503 59.2557ZM566.838 29.0477C571.062 29.0477 574.368 30.2637 576.758 32.6957C579.19 35.1277 580.406 38.7117 580.406 43.4477V62.9677H575.862V43.8957C575.862 40.3971 575.008 37.7304 573.302 35.8957C571.638 34.0611 569.27 33.1437 566.198 33.1437C562.699 33.1437 559.947 34.2317 557.942 36.4077C555.936 38.5411 554.934 41.5064 554.934 45.3037V62.9677H550.39V43.8957C550.39 40.3971 549.536 37.7304 547.83 35.8957C546.166 34.0611 543.776 33.1437 540.662 33.1437C537.206 33.1437 534.454 34.2317 532.406 36.4077C530.4 38.5411 529.398 41.5064 529.398 45.3037V62.9677H524.854V29.3037H529.206V35.4477C530.4 33.3997 532.064 31.8211 534.198 30.7117C536.331 29.6024 538.784 29.0477 541.558 29.0477C544.374 29.0477 546.806 29.6451 548.854 30.8397C550.944 32.0344 552.502 33.8051 553.526 36.1517C554.763 33.9331 556.534 32.2051 558.838 30.9677C561.184 29.6877 563.851 29.0477 566.838 29.0477ZM622.166 47.5437H594.006C594.262 51.0424 595.606 53.8797 598.038 56.0557C600.47 58.1891 603.542 59.2557 607.254 59.2557C609.344 59.2557 611.264 58.8931 613.014 58.1677C614.763 57.3997 616.278 56.2904 617.558 54.8397L620.118 57.7837C618.624 59.5757 616.747 60.9411 614.486 61.8797C612.267 62.8184 609.814 63.2877 607.126 63.2877C603.67 63.2877 600.598 62.5624 597.91 61.1117C595.264 59.6184 593.195 57.5704 591.702 54.9677C590.208 52.3651 589.462 49.4211 589.462 46.1357C589.462 42.8504 590.166 39.9064 591.574 37.3037C593.024 34.7011 594.987 32.6744 597.462 31.2237C599.979 29.7731 602.795 29.0477 605.91 29.0477C609.024 29.0477 611.819 29.7731 614.294 31.2237C616.768 32.6744 618.71 34.7011 620.118 37.3037C621.526 39.8637 622.23 42.8077 622.23 46.1357L622.166 47.5437ZM605.91 32.9517C602.667 32.9517 599.936 33.9971 597.718 36.0877C595.542 38.1357 594.304 40.8237 594.006 44.1517H617.878C617.579 40.8237 616.32 38.1357 614.102 36.0877C611.926 33.9971 609.195 32.9517 605.91 32.9517ZM648.631 29.0477C652.855 29.0477 656.204 30.2851 658.679 32.7597C661.196 35.1917 662.455 38.7544 662.455 43.4477V62.9677H657.911V43.8957C657.911 40.3971 657.036 37.7304 655.287 35.8957C653.537 34.0611 651.041 33.1437 647.799 33.1437C644.172 33.1437 641.292 34.2317 639.159 36.4077C637.068 38.5411 636.023 41.5064 636.023 45.3037V62.9677H631.479V29.3037H635.831V35.5117C637.068 33.4637 638.775 31.8851 640.951 30.7757C643.169 29.6237 645.729 29.0477 648.631 29.0477ZM692.519 60.9197C691.666 61.6877 690.599 62.2851 689.319 62.7117C688.082 63.0957 686.781 63.2877 685.415 63.2877C682.258 63.2877 679.826 62.4344 678.119 60.7277C676.413 59.0211 675.559 56.6104 675.559 53.4957V33.1437H669.543V29.3037H675.559V21.9437H680.103V29.3037H690.343V33.1437H680.103V53.2397C680.103 55.2451 680.594 56.7811 681.575 57.8477C682.599 58.8717 684.05 59.3837 685.927 59.3837C686.866 59.3837 687.762 59.2344 688.615 58.9357C689.511 58.6371 690.279 58.2104 690.919 57.6557L692.519 60.9197ZM749.093 62.9677L738.853 48.5677C737.701 48.6957 736.507 48.7597 735.269 48.7597H723.237V62.9677H718.501V18.1677H735.269C740.987 18.1677 745.467 19.5331 748.709 22.2637C751.952 24.9944 753.573 28.7491 753.573 33.5277C753.573 37.0264 752.677 39.9917 750.885 42.4237C749.136 44.8131 746.619 46.5411 743.333 47.6077L754.277 62.9677H749.093ZM735.141 44.7277C739.579 44.7277 742.971 43.7464 745.317 41.7837C747.664 39.8211 748.837 37.0691 748.837 33.5277C748.837 29.9011 747.664 27.1277 745.317 25.2077C742.971 23.2451 739.579 22.2637 735.141 22.2637H723.237V44.7277H735.141ZM793.103 47.5437H764.943C765.199 51.0424 766.543 53.8797 768.975 56.0557C771.407 58.1891 774.479 59.2557 778.191 59.2557C780.282 59.2557 782.202 58.8931 783.951 58.1677C785.701 57.3997 787.215 56.2904 788.495 54.8397L791.055 57.7837C789.562 59.5757 787.685 60.9411 785.423 61.8797C783.205 62.8184 780.751 63.2877 778.063 63.2877C774.607 63.2877 771.535 62.5624 768.847 61.1117C766.202 59.6184 764.133 57.5704 762.639 54.9677C761.146 52.3651 760.399 49.4211 760.399 46.1357C760.399 42.8504 761.103 39.9064 762.511 37.3037C763.962 34.7011 765.925 32.6744 768.399 31.2237C770.917 29.7731 773.733 29.0477 776.847 29.0477C779.962 29.0477 782.757 29.7731 785.231 31.2237C787.706 32.6744 789.647 34.7011 791.055 37.3037C792.463 39.8637 793.167 42.8077 793.167 46.1357L793.103 47.5437ZM776.847 32.9517C773.605 32.9517 770.874 33.9971 768.655 36.0877C766.479 38.1357 765.242 40.8237 764.943 44.1517H788.815C788.517 40.8237 787.258 38.1357 785.039 36.0877C782.863 33.9971 780.133 32.9517 776.847 32.9517ZM811.44 63.2877C808.71 63.2877 806.086 62.9037 803.568 62.1357C801.094 61.3251 799.152 60.3224 797.744 59.1277L799.792 55.5437C801.2 56.6531 802.971 57.5704 805.104 58.2957C807.238 58.9784 809.456 59.3197 811.76 59.3197C814.832 59.3197 817.094 58.8504 818.544 57.9117C820.038 56.9304 820.784 55.5651 820.784 53.8157C820.784 52.5784 820.379 51.6184 819.568 50.9357C818.758 50.2104 817.734 49.6771 816.496 49.3357C815.259 48.9517 813.616 48.5891 811.568 48.2477C808.838 47.7357 806.64 47.2237 804.976 46.7117C803.312 46.1571 801.883 45.2397 800.688 43.9597C799.536 42.6797 798.96 40.9091 798.96 38.6477C798.96 35.8317 800.134 33.5277 802.48 31.7357C804.827 29.9437 808.091 29.0477 812.272 29.0477C814.448 29.0477 816.624 29.3464 818.8 29.9437C820.976 30.4984 822.768 31.2451 824.176 32.1837L822.192 35.8317C819.419 33.9117 816.112 32.9517 812.272 32.9517C809.371 32.9517 807.174 33.4637 805.68 34.4877C804.23 35.5117 803.504 36.8557 803.504 38.5197C803.504 39.7997 803.91 40.8237 804.72 41.5917C805.574 42.3597 806.619 42.9357 807.856 43.3197C809.094 43.6611 810.8 44.0237 812.976 44.4077C815.664 44.9197 817.819 45.4317 819.44 45.9437C821.062 46.4557 822.448 47.3304 823.6 48.5677C824.752 49.8051 825.328 51.5117 825.328 53.6877C825.328 56.6317 824.091 58.9784 821.616 60.7277C819.184 62.4344 815.792 63.2877 811.44 63.2877ZM847.489 63.2877C844.246 63.2877 841.323 62.5624 838.721 61.1117C836.118 59.6184 834.07 57.5704 832.577 54.9677C831.083 52.3651 830.337 49.4211 830.337 46.1357C830.337 42.8504 831.083 39.9064 832.577 37.3037C834.07 34.7011 836.118 32.6744 838.721 31.2237C841.323 29.7731 844.246 29.0477 847.489 29.0477C850.731 29.0477 853.654 29.7731 856.257 31.2237C858.859 32.6744 860.886 34.7011 862.337 37.3037C863.83 39.9064 864.577 42.8504 864.577 46.1357C864.577 49.4211 863.83 52.3651 862.337 54.9677C860.886 57.5704 858.859 59.6184 856.257 61.1117C853.654 62.5624 850.731 63.2877 847.489 63.2877ZM847.489 59.2557C849.878 59.2557 852.011 58.7224 853.889 57.6557C855.809 56.5464 857.302 54.9891 858.369 52.9837C859.435 50.9784 859.969 48.6957 859.969 46.1357C859.969 43.5757 859.435 41.2931 858.369 39.2877C857.302 37.2824 855.809 35.7464 853.889 34.6797C852.011 33.5704 849.878 33.0157 847.489 33.0157C845.099 33.0157 842.945 33.5704 841.025 34.6797C839.147 35.7464 837.654 37.2824 836.545 39.2877C835.478 41.2931 834.945 43.5757 834.945 46.1357C834.945 48.6957 835.478 50.9784 836.545 52.9837C837.654 54.9891 839.147 56.5464 841.025 57.6557C842.945 58.7224 845.099 59.2557 847.489 59.2557ZM904.19 29.3037V62.9677H899.838V56.8237C898.643 58.8717 897 60.4717 894.91 61.6237C892.819 62.7331 890.43 63.2877 887.742 63.2877C883.347 63.2877 879.87 62.0717 877.31 59.6397C874.792 57.1651 873.534 53.5597 873.534 48.8237V29.3037H878.078V48.3757C878.078 51.9171 878.952 54.6051 880.702 56.4397C882.451 58.2744 884.947 59.1917 888.19 59.1917C891.731 59.1917 894.526 58.1251 896.574 55.9917C898.622 53.8157 899.646 50.8077 899.646 46.9677V29.3037H904.19ZM921.268 35.8957C922.335 33.6344 923.914 31.9277 926.004 30.7757C928.138 29.6237 930.762 29.0477 933.876 29.0477V33.4637L932.788 33.3997C929.247 33.3997 926.474 34.4877 924.468 36.6637C922.463 38.8397 921.46 41.8904 921.46 45.8157V62.9677H916.916V29.3037H921.268V35.8957ZM955.743 63.2877C952.415 63.2877 949.429 62.5624 946.783 61.1117C944.181 59.6611 942.133 57.6344 940.639 55.0317C939.146 52.3864 938.399 49.4211 938.399 46.1357C938.399 42.8504 939.146 39.9064 940.639 37.3037C942.133 34.7011 944.181 32.6744 946.783 31.2237C949.429 29.7731 952.415 29.0477 955.743 29.0477C958.645 29.0477 961.226 29.6237 963.487 30.7757C965.791 31.8851 967.605 33.5277 968.927 35.7037L965.535 38.0077C964.426 36.3437 963.018 35.1064 961.311 34.2957C959.605 33.4424 957.749 33.0157 955.743 33.0157C953.311 33.0157 951.114 33.5704 949.151 34.6797C947.231 35.7464 945.717 37.2824 944.607 39.2877C943.541 41.2931 943.007 43.5757 943.007 46.1357C943.007 48.7384 943.541 51.0424 944.607 53.0477C945.717 55.0104 947.231 56.5464 949.151 57.6557C951.114 58.7224 953.311 59.2557 955.743 59.2557C957.749 59.2557 959.605 58.8504 961.311 58.0397C963.018 57.2291 964.426 55.9917 965.535 54.3277L968.927 56.6317C967.605 58.8077 965.791 60.4717 963.487 61.6237C961.183 62.7331 958.602 63.2877 955.743 63.2877ZM1006.6 47.5437H978.443C978.699 51.0424 980.043 53.8797 982.475 56.0557C984.907 58.1891 987.979 59.2557 991.691 59.2557C993.782 59.2557 995.702 58.8931 997.451 58.1677C999.201 57.3997 1000.72 56.2904 1002 54.8397L1004.56 57.7837C1003.06 59.5757 1001.18 60.9411 998.923 61.8797C996.705 62.8184 994.251 63.2877 991.563 63.2877C988.107 63.2877 985.035 62.5624 982.347 61.1117C979.702 59.6184 977.633 57.5704 976.139 54.9677C974.646 52.3651 973.899 49.4211 973.899 46.1357C973.899 42.8504 974.603 39.9064 976.011 37.3037C977.462 34.7011 979.425 32.6744 981.899 31.2237C984.417 29.7731 987.233 29.0477 990.347 29.0477C993.462 29.0477 996.257 29.7731 998.731 31.2237C1001.21 32.6744 1003.15 34.7011 1004.56 37.3037C1005.96 39.8637 1006.67 42.8077 1006.67 46.1357L1006.6 47.5437ZM990.347 32.9517C987.105 32.9517 984.374 33.9971 982.155 36.0877C979.979 38.1357 978.742 40.8237 978.443 44.1517H1002.32C1002.02 40.8237 1000.76 38.1357 998.539 36.0877C996.363 33.9971 993.633 32.9517 990.347 32.9517ZM1024.94 63.2877C1022.21 63.2877 1019.59 62.9037 1017.07 62.1357C1014.59 61.3251 1012.65 60.3224 1011.24 59.1277L1013.29 55.5437C1014.7 56.6531 1016.47 57.5704 1018.6 58.2957C1020.74 58.9784 1022.96 59.3197 1025.26 59.3197C1028.33 59.3197 1030.59 58.8504 1032.04 57.9117C1033.54 56.9304 1034.28 55.5651 1034.28 53.8157C1034.28 52.5784 1033.88 51.6184 1033.07 50.9357C1032.26 50.2104 1031.23 49.6771 1030 49.3357C1028.76 48.9517 1027.12 48.5891 1025.07 48.2477C1022.34 47.7357 1020.14 47.2237 1018.48 46.7117C1016.81 46.1571 1015.38 45.2397 1014.19 43.9597C1013.04 42.6797 1012.46 40.9091 1012.46 38.6477C1012.46 35.8317 1013.63 33.5277 1015.98 31.7357C1018.33 29.9437 1021.59 29.0477 1025.77 29.0477C1027.95 29.0477 1030.12 29.3464 1032.3 29.9437C1034.48 30.4984 1036.27 31.2451 1037.68 32.1837L1035.69 35.8317C1032.92 33.9117 1029.61 32.9517 1025.77 32.9517C1022.87 32.9517 1020.67 33.4637 1019.18 34.4877C1017.73 35.5117 1017 36.8557 1017 38.5197C1017 39.7997 1017.41 40.8237 1018.22 41.5917C1019.07 42.3597 1020.12 42.9357 1021.36 43.3197C1022.59 43.6611 1024.3 44.0237 1026.48 44.4077C1029.16 44.9197 1031.32 45.4317 1032.94 45.9437C1034.56 46.4557 1035.95 47.3304 1037.1 48.5677C1038.25 49.8051 1038.83 51.5117 1038.83 53.6877C1038.83 56.6317 1037.59 58.9784 1035.12 60.7277C1032.68 62.4344 1029.29 63.2877 1024.94 63.2877Z" fill="#5995DA"/>
<path d="M43.9666 52.4234H46.2082V54.7097H43.9666V52.4234Z" fill="black"/>
<path d="M52.9332 52.4234H55.1749V54.7097H52.9332V52.4234Z" fill="black"/>
<path d="M48.4499 52.4234H50.6916V54.7097H48.4499V52.4234Z" fill="black"/>
<path d="M66.4 6.27804C63.5206 3.45104 59.7333 1.97867 55.7275 2.13642C49.2154 2.3902 43.6561 7.27372 42.1419 13.5564H6.97916C3.88902 13.5564 1.375 16.1205 1.375 19.2722V53.5665C1.375 56.7182 3.88902 59.2823 6.97916 59.2823H20.3877C20.1994 61.1056 19.2702 62.7586 17.8142 63.8548H14.825C12.9711 63.8548 11.4625 65.3935 11.4625 67.2843V69.5706C11.4625 71.4613 12.9711 73 14.825 73H48.4499C50.3038 73 51.8124 71.4613 51.8124 69.5706V67.2843C51.8124 65.3935 50.3038 63.8548 48.4499 63.8548H45.4618C44.0058 62.7586 43.0766 61.1056 42.8883 59.2823H56.2957C59.3859 59.2823 61.8999 56.7182 61.8999 53.5665V40.865C63.2841 39.4212 64.1415 37.4493 64.1415 35.2762V32.3017C64.1415 30.683 64.8477 29.1329 66.1299 27.9361C69.1393 25.1274 70.8665 21.1366 70.8665 16.9859C70.8665 12.9094 69.2794 9.10618 66.4 6.27804V6.27804ZM55.1749 43.1868V47.8508H8.09999V29.5605H47.7628C48.2078 30.3664 48.4499 31.2489 48.4499 32.1566V35.2762C48.4499 39.2989 51.3786 42.6289 55.1749 43.1868ZM8.09999 27.2742V20.4153H42.1407C42.7404 22.9817 44.0025 25.348 45.8238 27.2742H8.09999ZM49.5707 67.2843V69.5706C49.5707 70.2016 49.0675 70.7137 48.4499 70.7137H14.825C14.2074 70.7137 13.7041 70.2016 13.7041 69.5706V67.2843C13.7041 66.6533 14.2074 66.1411 14.825 66.1411H48.4499C49.0675 66.1411 49.5707 66.6533 49.5707 67.2843ZM42.3178 63.8548H20.957C21.9187 62.5345 22.5015 60.9558 22.6293 59.2823H40.6467C40.7745 60.9558 41.3573 62.5345 42.3178 63.8548ZM56.2957 56.996H6.97916C5.1253 56.996 3.61666 55.4573 3.61666 53.5665V19.2722C3.61666 17.3814 5.1253 15.8427 6.97916 15.8427H41.7866C41.7664 16.1079 41.735 16.3697 41.7294 16.6372C41.7182 17.1379 41.7372 17.6352 41.7754 18.129H8.09999C6.86371 18.129 5.85832 19.1544 5.85832 20.4153V47.8508C5.85832 49.1117 6.86371 50.1371 8.09999 50.1371H55.1749C56.4112 50.1371 57.4166 49.1117 57.4166 47.8508V43.1868C58.2079 43.0702 58.9611 42.8347 59.6582 42.4952V53.5665C59.6582 55.4573 58.1496 56.996 56.2957 56.996V56.996ZM56.2957 40.9919C53.2056 40.9919 50.6916 38.4279 50.6916 35.2762V34.1331H61.8999V35.2762C61.8999 38.4279 59.3859 40.9919 56.2957 40.9919ZM52.9332 15.8427H51.8124C51.1948 15.8427 50.6916 15.3306 50.6916 14.6996C50.6916 14.0686 51.1948 13.5564 51.8124 13.5564C52.43 13.5564 52.9332 14.0686 52.9332 14.6996V15.8427ZM57.4166 31.8468H55.1749V18.129H57.4166V31.8468ZM64.6168 26.2499C62.9826 27.7737 62.0445 29.748 61.9245 31.8468H59.6582V18.129H60.779C62.6329 18.129 64.1415 16.5904 64.1415 14.6996C64.1415 12.8088 62.6329 11.2702 60.779 11.2702C58.9252 11.2702 57.4166 12.8088 57.4166 14.6996V15.8427H55.1749V14.6996C55.1749 12.8088 53.6663 11.2702 51.8124 11.2702C49.9585 11.2702 48.4499 12.8088 48.4499 14.6996C48.4499 16.5904 49.9585 18.129 51.8124 18.129H52.9332V31.8468H50.6748C50.5873 29.7902 49.6447 27.7863 48.0397 26.3094C45.371 23.8539 43.8881 20.3479 43.9699 16.6898C44.1168 10.1727 49.4284 4.66849 55.8115 4.42042C55.9752 4.41471 56.1366 4.41128 56.2991 4.41128C59.5069 4.41128 62.5264 5.64816 64.8454 7.92531C67.2821 10.3191 68.6249 13.5359 68.6249 16.9859C68.6249 20.4965 67.1644 23.8722 64.6168 26.2499ZM59.6582 15.8427V14.6996C59.6582 14.0686 60.1615 13.5564 60.779 13.5564C61.3966 13.5564 61.8999 14.0686 61.8999 14.6996C61.8999 15.3306 61.3966 15.8427 60.779 15.8427H59.6582Z" fill="black"/>
<path d="M14.825 22.7016H17.0666V24.9879H14.825V22.7016Z" fill="black"/>
<path d="M10.3417 22.7016H12.5833V24.9879H10.3417V22.7016Z" fill="black"/>
<path d="M19.3083 22.7016H21.55V24.9879H19.3083V22.7016Z" fill="black"/>
<path d="M10.3417 45.5645H28.275V31.8468H10.3417V45.5645ZM12.5833 34.1331H26.0333V43.2782H12.5833V34.1331Z" fill="#5995DA"/>
<path d="M30.5166 31.8468H32.7583V34.1331H30.5166V31.8468Z" fill="#5995DA"/>
<path d="M34.9999 31.8468H46.2082V34.1331H34.9999V31.8468Z" fill="#5995DA"/>
<path d="M30.5166 36.4194H46.2082V38.7057H30.5166V36.4194Z" fill="#5995DA"/>
<path d="M30.5166 40.9919H46.2082V43.2782H30.5166V40.9919Z" fill="#5995DA"/>
</svg>
